<?xml version="1.0" encoding="UTF-8" standalone="no"?>
<svg
   xmlns:dc="http://purl.org/dc/elements/1.1/"
   xmlns:cc="http://creativecommons.org/ns#"
   xmlns:rdf="http://www.w3.org/1999/02/22-rdf-syntax-ns#"
   xmlns:svg="http://www.w3.org/2000/svg"
   xmlns="http://www.w3.org/2000/svg"
   viewBox="0 0 43 48"
   height="48"
   width="43"
   id="svg2"
   version="1.1">
  <metadata
     id="metadata8">
    <rdf:RDF>
      <cc:Work
         rdf:about="">
        <dc:format>image/svg+xml</dc:format>
        <dc:type
           rdf:resource="http://purl.org/dc/dcmitype/StillImage" />
        <dc:title></dc:title>
      </cc:Work>
    </rdf:RDF>
  </metadata>
  <defs
     id="defs6" />
  <g
     style="display:inline"
     id="layer2">
    <path
       transform="matrix(0.9737396343,0.2609127487,-0.2609127487,0.9737396343,6.826660387,-4.983307995)"
       d="m 34.37032986,36.87032986 c -1.30577364,1.30577363 -3.16491678,0.24665313 -4.76415634,1.16997452 -1.59923957,0.9233214 -1.61158588,3.06294684 -3.39530584,3.54089316 C 24.42714773,42.05914386 23.34664278,40.21234703 21.5,40.21234703 c -1.84664278,0 -2.92714773,1.84679683 -4.71086768,1.36885051 C 15.00541236,41.10325122 14.99306605,38.96362578 13.39382648,38.04030438 11.79458692,37.11698299 9.935443779,38.17610349 8.629670144,36.87032986 7.323896509,35.56455622 8.383017009,33.70541308 7.459695616,32.10617352 6.536374224,30.50693395 4.396748783,30.49458764 3.918802461,28.71086768 3.440856139,26.92714773 5.287652969,25.84664278 5.287652969,24 c 0,-1.84664278 -1.84679683,-2.92714773 -1.368850508,-4.71086768 C 4.396748783,17.50541236 6.536374224,17.49306605 7.459695617,15.89382648 8.383017009,14.29458692 7.323896509,12.43544378 8.629670144,11.12967014 9.935443779,9.823896509 11.79458692,10.88301701 13.39382648,9.959695616 14.99306605,9.036374224 15.00541236,6.896748783 16.78913232,6.418802461 18.57285227,5.940856139 19.65335722,7.787652969 21.5,7.787652969 c 1.84664278,0 2.92714773,-1.84679683 4.71086768,-1.368850508 1.78371996,0.477946322 1.79606627,2.617571763 3.39530584,3.540893156 1.59923956,0.923321393 3.4583827,-0.135799108 4.76415634,1.169974523 1.30577363,1.30577364 0.24665313,3.16491678 1.16997452,4.76415634 0.9233214,1.59923957 3.06294684,1.61158588 3.54089316,3.39530584 0.47794632,1.78371995 -1.36885051,2.8642249 -1.36885051,4.71086768 0,1.84664278 1.84679683,2.92714773 1.36885051,4.71086768 -0.47794632,1.78371996 -2.61757176,1.79606627 -3.54089316,3.39530584 -0.92332139,1.59923956 0.13579911,3.4583827 -1.16997452,4.76415634 z"
       id="path865"
       style="color:#000000;overflow:visible;opacity:1;vector-effect:none;fill:#aa0000;fill-opacity:1;stroke:none;stroke-width:0.35719347;stroke-linecap:round;stroke-linejoin:round;stroke-miterlimit:4;stroke-dasharray:none;stroke-dashoffset:0;stroke-opacity:1" />
    <circle
       r="12.89670181"
       cy="24"
       cx="21.5"
       id="path931"
       style="color:#000000;overflow:visible;opacity:1;vector-effect:none;fill:#ffffff;fill-opacity:1;stroke:none;stroke-width:0.1008106694;stroke-linecap:round;stroke-linejoin:round;stroke-miterlimit:4;stroke-dasharray:none;stroke-dashoffset:0;stroke-opacity:1" />
    <circle
       r="11.24429989"
       cy="24"
       cx="21.5"
       id="path929"
       style="color:#000000;overflow:visible;opacity:1;vector-effect:none;fill:#aa0000;fill-opacity:1;stroke:none;stroke-width:0.1000000015;stroke-linecap:round;stroke-linejoin:round;stroke-miterlimit:4;stroke-dasharray:none;stroke-dashoffset:0;stroke-opacity:1" />
    <path
       style="opacity:1;fill:#ffffff;stroke:none;stroke-width:0.0753445178"
       d="m 20.50410472,30.28449599 c 0.34037945,-0.140522 8.61683481,-8.36768434 8.82758321,-8.77500774 0.29759915,-0.575184 0.26109665,-1.12370979 -0.1104582,-1.65986361 -0.23721915,-0.34230734 -0.84362909,-0.67581643 -1.22881749,-0.67581643 -0.71256716,0 -0.65030523,-0.0522413 -4.45988793,3.7421009 -1.96935304,1.96147453 -3.61399645,3.56631732 -3.65476317,3.56631732 -0.0407667,0 -0.9384503,-0.86494446 -1.99485243,-1.92209879 -2.11696219,-2.11846956 -2.22152799,-2.19332991 -2.97624594,-2.13074283 -1.09190501,0.0905493 -1.76595178,1.3115037 -1.25994885,2.28224545 0.21266367,0.4079848 5.24534969,5.41904189 5.59295016,5.56891339 0.3429602,0.14787081 0.91152929,0.14964801 1.26444064,0.003952 z"
       id="path819-3" />
  </g>
</svg>
