<?xml version="1.0" encoding="UTF-8" standalone="no"?>
<svg
   xmlns:dc="http://purl.org/dc/elements/1.1/"
   xmlns:cc="http://creativecommons.org/ns#"
   xmlns:rdf="http://www.w3.org/1999/02/22-rdf-syntax-ns#"
   xmlns:svg="http://www.w3.org/2000/svg"
   xmlns="http://www.w3.org/2000/svg"
   version="1.1"
   x="0px"
   y="0px"
   viewBox="0 0 42.66666667 48"
   enable-background="new 0 0 1000 1000"
   xml:space="preserve"
   id="svg12"
   width="32pt"
   height="36pt"><defs
   id="defs16" />
<path
   id="path6"
   style="fill:#aa0000;stroke-width:0.0046493672"
   d="m 21.29139718,9.20781643 c -0.65925812,0.0011731 -1.31580648,0.05194118 -1.7615682,0.151465817 -3.03513105,0.645057953 -5.51085433,2.912237453 -6.44040952,5.890567863 -0.9769714,3.11119454 -0.0951671,6.47692857 2.276137,8.75389426 0.76853767,0.72062754 1.29124421,1.09038814 2.18276766,1.54578129 2.74124936,1.36568548 6.07920813,1.11998199 8.66882441,-0.63491152 0.63567352,-0.4361303 1.66918301,-1.46035037 2.14334506,-2.12467118 0.58825729,-0.80607549 1.13806665,-2.03150115 1.37564159,-3.02724146 0.23708104,-1.02438761 0.26702417,-2.69338602 0.0580965,-3.68912633 C 29.07311024,12.70653068 26.40638062,10.03199758 23.0674895,9.348907876 22.61234332,9.254075461 21.9506553,9.206643372 21.29139718,9.20781643 Z m -3.32602335,5.18718551 h 0.21786179 c 2.2982313,0 2.87370077,0.67239184 2.87370077,2.81560429 v 0.96689138 c 0,2.20502168 -0.55978998,2.81767917 -2.87370077,2.81767917 h -0.21786179 c -2.31042862,0 -2.87370076,-0.67446673 -2.87370076,-2.81767917 v -0.96689138 c 0,-2.18327449 0.55978998,-2.81560429 2.87370076,-2.81560429 z m 4.00865696,0.0746955 h 1.63292601 v 2.53134653 h 0.51041904 l 1.57482952,-2.53134653 h 1.89643502 l -2.07694908,3.11023643 2.28651138,3.3384726 H 25.75860134 L 24.09040248,18.23559409 H 23.6069568 v 2.68281235 h -1.63292601 z m -3.9816836,1.21380141 c -0.97106117,0 -1.2138014,0.28569398 -1.2138014,1.53748178 v 0.92746877 c 0,1.28777676 0.23702759,1.53748178 1.2138014,1.53748178 h 0.1618402 c 0.98008978,0 1.2138014,-0.28569398 1.2138014,-1.53748178 V 17.2209806 c 0,-1.27598895 -0.23702759,-1.53748178 -1.2138014,-1.53748178 z M 20.51225502,2.485708261 C 20.06591579,3.182183438 19.50334238,4.066028104 19.25320644,4.450065818 L 18.815701,5.137707198 17.26188255,4.057194307 C 16.40453928,3.458820774 15.54766094,2.860912178 15.34215892,2.727010408 L 14.98508753,2.468040666 14.59221602,4.673235434 C 14.386714,5.887650095 14.17237818,6.914230328 14.13704299,6.958864252 14.09240907,7.003498175 13.17276427,6.842630077 11.92254949,6.574826537 10.74393495,6.315856796 9.743856112,6.119653508 9.699222189,6.137321103 c -0.03580013,0.0088338 0.116234175,0.892678464 0.348237591,1.946225026 0.23200341,1.053546562 0.45517303,2.062459201 0.48213936,2.232161101 l 0.0534677,0.31243746 -2.214493506,0.39287151 c -1.214414661,0.21433582 -2.240994894,0.40170531 -2.27679502,0.41983784 -0.03580013,0.0269663 0.535607078,0.89267846 1.267882381,1.93739123 l 1.321350101,1.8927573 -0.83828087,0.53653696 c -0.464471763,0.29476986 -1.34831643,0.85734327 -1.964357557,1.25904858 l -1.125146814,0.7234415 1.928557431,1.24091606 c 1.06238036,0.67880758 1.928557432,1.26788238 1.928557432,1.3125163 0,0.0446339 -0.580241002,0.91034606 -1.294383773,1.9192587 -0.714142771,1.01774644 -1.259048584,1.85742212 -1.223248458,1.87508971 0.04463392,0.008834 1.053546562,0.19666822 2.240994894,0.41100404 1.187448332,0.21433582 2.178693379,0.41053911 2.205194769,0.43750544 0.0269663,0.0269663 -0.1697019,1.04471276 -0.43750544,2.26796122 -0.267803534,1.21441466 -0.482139353,2.2233273 -0.473305556,2.2321611 0.0088338,0.008834 0.973112516,-0.19620329 2.151727046,-0.44633924 1.31251631,-0.29476986 2.15172705,-0.43750543 2.16056085,-0.37520391 0.0176676,0.0446339 -1.16094694,3.50004348 -2.60736502,7.67889453 -1.446418071,4.16955233 -2.616198808,7.5896267 -2.607365011,7.59846049 0.0088338,0.008834 1.375282761,-0.98241124 3.026737921,-2.20519477 2.73196805,-2.01782527 3.19643981,-2.33072767 3.19643981,-2.17869337 0,0.0892678 2.071293,7.14282252 2.11592692,7.22325657 0.0269663,0.0446339 0.98194631,-2.62503261 2.12522566,-5.920039 1.1428144,-3.30337525 2.09825932,-6.01814065 2.12522565,-6.04464204 0.0446339,-0.0534677 0.1697019,0.30360367 2.48229704,6.99125316 0.95544492,2.75893438 1.75885554,4.99109547 1.78582187,4.95529535 0.0446339,-0.0446339 1.71422161,-5.66990306 2.12522565,-7.14282252 0.0534677,-0.18736949 0.29476987,-0.0176676 3.1341383,2.07175793 1.69655402,1.25021479 3.08950437,2.26796122 3.09833817,2.24982869 0.008834,-0.008834 -1.16978074,-3.42890816 -2.61619881,-7.59846049 -1.44641808,-4.17885105 -2.61619881,-7.63426061 -2.60736502,-7.68772833 0.0176676,-0.0534677 0.83037695,0.0892679 2.16056085,0.38403771 1.17861453,0.25896975 2.14289325,0.46447177 2.15172705,0.44633924 0.008834,-0.008834 -0.19666823,-1.01774644 -0.46447177,-2.2321611 -0.26780354,-1.22324846 -0.46447176,-2.24099489 -0.43750543,-2.27679502 0.0358001,-0.0269663 1.02658023,-0.22316962 2.2144935,-0.43750543 1.18744833,-0.20550203 2.18752717,-0.39287152 2.2233273,-0.40170531 0.0358001,-0.0176676 -0.50864075,-0.85687834 -1.22324846,-1.87508971 -0.70530897,-1.01774644 -1.28601491,-1.88392351 -1.28601491,-1.92855744 0,-0.0446339 0.86617707,-0.63370872 1.92855743,-1.3125163 l 1.92855743,-1.23208226 -0.99031517,-0.63463859 c -0.54444087,-0.34823759 -1.42875048,-0.91964479 -1.96435756,-1.25904858 l -0.98241124,-0.62487493 1.29484871,-1.84812338 c 0.70530897,-1.01774644 1.28601491,-1.88392351 1.28601491,-1.92855743 0,-0.0358001 -1.00007884,-0.25013595 -2.2321611,-0.46447177 -1.22324846,-0.22316961 -2.2321611,-0.43750543 -2.2321611,-0.49097315 0,-0.0446339 0.21433582,-1.062380361 0.47330557,-2.259127427 0.38403771,-1.72305541 0.45517302,-2.160560845 0.34823758,-2.160560845 -0.0716003,0 -1.07167909,0.205502021 -2.2144935,0.464471763 -1.24091605,0.26780354 -2.12522565,0.419837841 -2.16985958,0.374738981 -0.0623015,-0.06230152 -0.81270935,-4.098417011 -0.81270935,-4.348088019 0,-0.152034301 -0.26780354,0.0088338 -2.01782528,1.232082255 L 23.8514304,5.137707198 23.30698952,4.289662657 C 23.00338586,3.816357096 22.44081245,2.941346227 22.04794094,2.325305099 L 21.33379817,1.21782588 Z m 2.5847198,5.24122171 c 4.09755041,0.711243078 7.40779423,3.926654499 8.23313255,7.986667069 0.23708103,1.12860446 0.25584995,2.82669731 0.0661851,3.91727004 -1.06192543,5.89986011 -7.08526525,9.65611262 -12.84287675,8.0059299 -1.80230972,-0.51219381 -3.12057901,-1.31826929 -4.52429625,-2.73186491 -1.45113345,-1.47039629 -2.30511906,-3.07316281 -2.72248045,-5.08390625 -0.24646549,-1.20466797 -0.19904927,-3.4618769 0.10421683,-4.57171246 0.79669103,-2.9022669 2.7318649,-5.292833902 5.3688974,-6.601718739 1.48916519,-0.739890368 2.76989665,-1.043156514 4.46749558,-1.05303489 0.57887284,-0.0098783 1.41359563,0.05630674 1.84972599,0.13237024 z" /></svg>
